<mxfile host="app.diagrams.net" agent="Mozilla/5.0 (Windows NT 10.0; Win64; x64) AppleWebKit/537.36 (KHTML, like Gecko) Chrome/128.0.0.0 Safari/537.36" version="24.7.8">
  <diagram name="Page-1" id="9lpRpoLiDeZdS2-mQyQF">
    <mxGraphModel dx="1434" dy="738" grid="1" gridSize="10" guides="1" tooltips="1" connect="1" arrows="1" fold="1" page="1" pageScale="1" pageWidth="1100" pageHeight="850" math="0" shadow="0">
      <root>
        <mxCell id="0" />
        <mxCell id="1" parent="0" />
        <mxCell id="96mUyNL-DGfWYdhyKvYH-11" style="edgeStyle=orthogonalEdgeStyle;rounded=0;orthogonalLoop=1;jettySize=auto;html=1;exitX=1;exitY=0.5;exitDx=0;exitDy=0;entryX=0;entryY=0.5;entryDx=0;entryDy=0;" edge="1" parent="1" source="96mUyNL-DGfWYdhyKvYH-1" target="96mUyNL-DGfWYdhyKvYH-3">
          <mxGeometry relative="1" as="geometry" />
        </mxCell>
        <mxCell id="96mUyNL-DGfWYdhyKvYH-12" value="deskripsi_solusi" style="edgeLabel;html=1;align=center;verticalAlign=middle;resizable=0;points=[];" vertex="1" connectable="0" parent="96mUyNL-DGfWYdhyKvYH-11">
          <mxGeometry x="-0.1077" y="-1" relative="1" as="geometry">
            <mxPoint as="offset" />
          </mxGeometry>
        </mxCell>
        <mxCell id="96mUyNL-DGfWYdhyKvYH-1" value="2.1 Proses pengerjaan" style="ellipse;whiteSpace=wrap;html=1;aspect=fixed;" vertex="1" parent="1">
          <mxGeometry x="490" y="160" width="120" height="120" as="geometry" />
        </mxCell>
        <mxCell id="96mUyNL-DGfWYdhyKvYH-7" style="edgeStyle=orthogonalEdgeStyle;rounded=0;orthogonalLoop=1;jettySize=auto;html=1;exitX=0;exitY=0.5;exitDx=0;exitDy=0;entryX=0.5;entryY=1;entryDx=0;entryDy=0;" edge="1" parent="1" source="96mUyNL-DGfWYdhyKvYH-2" target="96mUyNL-DGfWYdhyKvYH-4">
          <mxGeometry relative="1" as="geometry" />
        </mxCell>
        <mxCell id="96mUyNL-DGfWYdhyKvYH-8" value="konfirmasi_selesai" style="edgeLabel;html=1;align=center;verticalAlign=middle;resizable=0;points=[];" vertex="1" connectable="0" parent="96mUyNL-DGfWYdhyKvYH-7">
          <mxGeometry x="-0.0083" y="-2" relative="1" as="geometry">
            <mxPoint as="offset" />
          </mxGeometry>
        </mxCell>
        <mxCell id="96mUyNL-DGfWYdhyKvYH-2" value="2.2 Proses Konfirmasi" style="ellipse;whiteSpace=wrap;html=1;aspect=fixed;" vertex="1" parent="1">
          <mxGeometry x="490" y="340" width="120" height="120" as="geometry" />
        </mxCell>
        <mxCell id="96mUyNL-DGfWYdhyKvYH-5" style="edgeStyle=orthogonalEdgeStyle;rounded=0;orthogonalLoop=1;jettySize=auto;html=1;exitX=0.5;exitY=1;exitDx=0;exitDy=0;entryX=1;entryY=0.5;entryDx=0;entryDy=0;" edge="1" parent="1" source="96mUyNL-DGfWYdhyKvYH-3" target="96mUyNL-DGfWYdhyKvYH-2">
          <mxGeometry relative="1" as="geometry" />
        </mxCell>
        <mxCell id="96mUyNL-DGfWYdhyKvYH-6" value="konfirmasi_penyelesaian" style="edgeLabel;html=1;align=center;verticalAlign=middle;resizable=0;points=[];" vertex="1" connectable="0" parent="96mUyNL-DGfWYdhyKvYH-5">
          <mxGeometry x="0.2353" y="3" relative="1" as="geometry">
            <mxPoint as="offset" />
          </mxGeometry>
        </mxCell>
        <mxCell id="96mUyNL-DGfWYdhyKvYH-3" value="user" style="rounded=0;whiteSpace=wrap;html=1;" vertex="1" parent="1">
          <mxGeometry x="740" y="190" width="120" height="60" as="geometry" />
        </mxCell>
        <mxCell id="96mUyNL-DGfWYdhyKvYH-10" style="edgeStyle=orthogonalEdgeStyle;rounded=0;orthogonalLoop=1;jettySize=auto;html=1;exitX=0.5;exitY=0;exitDx=0;exitDy=0;entryX=0;entryY=0.5;entryDx=0;entryDy=0;" edge="1" parent="1" source="96mUyNL-DGfWYdhyKvYH-4" target="96mUyNL-DGfWYdhyKvYH-1">
          <mxGeometry relative="1" as="geometry" />
        </mxCell>
        <mxCell id="96mUyNL-DGfWYdhyKvYH-14" value="deskripsi_solusi" style="edgeLabel;html=1;align=center;verticalAlign=middle;resizable=0;points=[];" vertex="1" connectable="0" parent="96mUyNL-DGfWYdhyKvYH-10">
          <mxGeometry x="0.3857" y="-2" relative="1" as="geometry">
            <mxPoint as="offset" />
          </mxGeometry>
        </mxCell>
        <mxCell id="96mUyNL-DGfWYdhyKvYH-4" value="IT Support" style="rounded=0;whiteSpace=wrap;html=1;" vertex="1" parent="1">
          <mxGeometry x="230" y="300" width="120" height="60" as="geometry" />
        </mxCell>
      </root>
    </mxGraphModel>
  </diagram>
</mxfile>
